<mxfile host="app.diagrams.net" modified="2023-06-23T20:31:37.627Z" agent="Mozilla/5.0 (X11; Ubuntu; Linux x86_64; rv:109.0) Gecko/20100101 Firefox/110.0" version="21.2.9" etag="thaeQAb2WH8pw7yNdo44" type="github">
  <diagram name="Page-1" id="d5P0QVpH7Sz-wCqE05tJ">
    <mxGraphModel>
      <root>
        <mxCell id="0" />
        <mxCell id="1" parent="0" />
      </root>
    </mxGraphModel>
  </diagram>
</mxfile>
